<?xml version="1.0" encoding="UTF-8"?>
<svg data-bbox="0 0 14.517 13.464" xmlns="http://www.w3.org/2000/svg" viewBox="0 0 15 14" height="14" width="15" data-type="color">
    <g>
        <path fill-opacity=".5" fill="#F5F5F6" d="M8.294 11.126V9.588a.24.24 0 0 0-.081-.186.23.23 0 0 0-.178-.08H6.481a.26.26 0 0 0-.186.08.25.25 0 0 0-.073.186v1.538q0 .113.073.194a.27.27 0 0 0 .186.073h1.554q.105 0 .178-.073a.27.27 0 0 0 .08-.194M8.278 8.1l.145-3.714a.18.18 0 0 0-.08-.154q-.105-.09-.195-.09h-1.78q-.09 0-.194.09-.081.056-.081.17L6.231 8.1q0 .081.08.137a.37.37 0 0 0 .195.049h1.497a.33.33 0 0 0 .186-.049q.08-.056.089-.137M8.164.542l6.215 11.393q.283.51-.016 1.02-.138.234-.38.372a1 1 0 0 1-.51.137H1.043q-.273 0-.517-.137a1 1 0 0 1-.372-.373q-.3-.51-.016-1.019L6.352.542A1.03 1.03 0 0 1 7.258 0q.283 0 .526.146.243.145.38.396" data-color="1"/>
    </g>
</svg>
